<?xml version="1.0" encoding="utf-8"?>
<!-- Generator: Adobe Illustrator 21.0.2, SVG Export Plug-In . SVG Version: 6.00 Build 0)  -->
<svg version="1.1" id="Layer_1" xmlns="http://www.w3.org/2000/svg" xmlns:xlink="http://www.w3.org/1999/xlink" x="0px" y="0px"
	 viewBox="0 0 2112.5 1535.5" enable-background="new 0 0 2112.5 1535.5" xml:space="preserve">
<rect x="-50" y="767.5" fill="#17BED7" width="2212.5" height="767.5"/>
<rect x="-50" fill="#FF66A4" width="2212.5" height="767.5"/>
<g>
	<g>
		<g>
			<path fill="#FF66A4" d="M1017.8,890.7c-9,0-17.9-3.4-24.7-10.2c-13.7-13.7-13.7-35.8,0-49.5l211.7-211.8
				c13.7-13.7,35.8-13.7,49.5,0s13.7,35.8,0,49.5l-211.7,211.8C1035.7,887.3,1026.8,890.7,1017.8,890.7z"/>
		</g>
		<g>
			<path fill="#FF66A4" d="M1357.6,1459c-79.6,0-155.9-31.6-212.1-87.9s-87.9-132.6-87.9-212.1c0-79.6,31.6-155.9,87.9-212.1
				l683.7-683.8c56.3-56.3,132.6-87.9,212.1-87.9c79.6,0,155.9,31.6,212.1,87.9c56.3,56.3,87.9,132.6,87.9,212.1
				c0,79.6-31.6,155.9-87.9,212.1l-683.7,683.8C1513.5,1427.4,1437.2,1459,1357.6,1459z"/>
		</g>
		<g>
			<path fill="#FF66A4" d="M1782.6,1383c-16.6,0-33.3-6.3-46-19c-25.4-25.4-25.4-66.5,0-91.9l441-441c25.4-25.4,66.5-25.4,91.9,0
				s25.4,66.5,0,91.9l-441,441C1815.9,1376.7,1799.2,1383,1782.6,1383z"/>
		</g>
		<g>
			<path fill="none" stroke="#FF66A4" stroke-width="70" stroke-linecap="round" stroke-miterlimit="10" d="M1133.5,699.9"/>
			<path fill="none" stroke="#FF66A4" stroke-width="70" stroke-linecap="round" stroke-miterlimit="10" d="M921.8,911.7"/>
		</g>
		<g>
			<path fill="#FF66A4" d="M513,1187.4c-15.4,0-30.7-5.9-42.4-17.6c-23.4-23.4-23.4-61.4,0-84.9l427.5-427.5
				c23.4-23.4,61.4-23.4,84.9,0c23.4,23.4,23.4,61.4,0,84.9l-427.5,427.5C543.7,1181.5,528.4,1187.4,513,1187.4z"/>
		</g>
	</g>
	<g>
		<g>
			<path fill="#17BED7" d="M883,926.6c-9,0-17.9-3.4-24.7-10.2c-13.7-13.7-13.7-35.8,0-49.5L1070,655.1c13.7-13.7,35.8-13.7,49.5,0
				s13.7,35.8,0,49.5L907.8,916.3C900.9,923.2,892,926.6,883,926.6z"/>
		</g>
		<g>
			<path fill="#17BED7" d="M71.2,1360.3c-79.6,0-155.9-31.6-212.1-87.9s-87.9-132.6-87.9-212.1c0-79.6,31.6-155.9,87.9-212.1
				l683.7-683.8c56.3-56.3,132.6-87.9,212.1-87.9c79.6,0,155.9,31.6,212.1,87.9c56.3,56.3,87.9,132.6,87.9,212.1
				c0,79.6-31.6,155.9-87.9,212.1l-683.7,683.8C227.1,1328.7,150.8,1360.3,71.2,1360.3z"/>
		</g>
		<g>
			<path fill="#17BED7" d="M-111.1,723.5c-16.6,0-33.3-6.3-46-19c-25.4-25.4-25.4-66.5,0-91.9l441-441c25.4-25.4,66.5-25.4,91.9,0
				s25.4,66.5,0,91.9l-441,441C-77.8,717.2-94.5,723.5-111.1,723.5z"/>
		</g>
		<g>
			<path fill="none" stroke="#17BED7" stroke-width="70" stroke-linecap="round" stroke-miterlimit="10" d="M982,835.6"/>
			<path fill="none" stroke="#17BED7" stroke-width="70" stroke-linecap="round" stroke-miterlimit="10" d="M1193.7,623.8"/>
		</g>
		<g>
			<path fill="#17BED7" d="M1172,895.6c-15.4,0-30.7-5.9-42.4-17.6c-23.4-23.4-23.4-61.4,0-84.9l427.5-427.5
				c23.4-23.4,61.4-23.4,84.9,0c23.4,23.4,23.4,61.4,0,84.9L1214.4,878C1202.7,889.7,1187.4,895.6,1172,895.6z"/>
		</g>
	</g>
</g>
</svg>
