<?xml version="1.0" encoding="utf-8"?>
<!-- Generator: Adobe Illustrator 21.0.2, SVG Export Plug-In . SVG Version: 6.00 Build 0)  -->
<svg version="1.1" id="Layer_1" xmlns="http://www.w3.org/2000/svg" xmlns:xlink="http://www.w3.org/1999/xlink" x="0px" y="0px"
	 viewBox="0 0 2184 708" style="enable-background:new 0 0 2184 708;" xml:space="preserve">
<style type="text/css">
	.st0{fill:#FFFFFF;}
</style>
<g>
	<g>
		<path class="st0" d="M2088.9,430.7c-2-76.2-72.9-118.2-141.5-89.1c-35.4,15-54.1,43.7-57.6,81.3c-3.7,39.5,9,73,43.3,95.6
			c25.3,16.7,53.7,19.9,83.3,15.5c23.3-3.5,42.7-13.7,58.2-31.7c2.7-3.2,1.8-8.1-1.8-10.2c-12.1-7-23.8-13.8-35.6-20.2
			c-1.7-0.9-5.4,0-7.3,1.3c-19.6,13.7-40.7,14.5-61.4,4.7c-6.9-3.2-15.3-10.5-17.4-20.8h131.9c2.6,0,4.8-2,5-4.6
			C2088.3,445,2089,437.8,2088.9,430.7z M1950.2,413.6c2.4-17.7,19-29.8,40.6-29.9c20.7-0.2,37,12,40,29.9
			C2003.8,413.6,1977,413.6,1950.2,413.6z"/>
		<path class="st0" d="M1857,345c0-1.2,0-6.2,0-11c0-3.9-3.2-6.8-6.9-6.8c-0.7,0-1.4,0.1-2.2,0.3L1811,339c-1.3,0.4-2.6,1-3.7,1.7
			c-3.9,1.6-6.5,5.3-6.8,9.6c-0.1,1.8-0.3,3.8-0.4,5.8c-23.5-24.3-50.9-27.9-80.4-20.2c-39.3,10.3-66.8,45.2-69.6,86.6
			c-2.9,42.8,19.4,82.3,57.2,97.6c32.8,13.2,64.6,12.4,91.5-14.7c0.2-0.2,0.8,0.1,1.3,0.2c3.1,28.9-3.9,45.2-22.7,52.8
			c-20.2,8.2-40.4,3.8-57-12.1c-4.9-4.7-12.2-5.6-18-2.3c-11.2,6.4-22.3,12.9-33.5,19.4c-2.5,1.4-3.2,4.6-1.7,7
			c11.5,18.2,30.3,31.3,50.7,37c54.9,15.4,89.6-2.6,107.2-16.4c23.5-18.3,31.9-43.6,31.9-72.5C1857,460.7,1857,402.8,1857,345z
			 M1753.5,474.8c-27.3-0.5-46-18.9-45.8-44.9c0.2-26.5,19.3-44.4,47.1-44.2c27.2,0.3,46,18.6,45.7,44.7
			C1800.3,456.9,1780.7,475.3,1753.5,474.8z"/>
		<path class="st0" d="M1608.1,273l-37.9,11.5c-6.3,1.9-10.6,7.7-10.6,14.4l0,56.2l-0.1-0.4c-30.9-30.6-81.8-27.7-112.4-2
			c-42.3,35.6-50.3,107.2-10.9,151.4c16,18,39.2,28.3,63.2,30.5c24,2.2,43.3-4.6,60.3-21.9l0,17.1h57.4V340.3v-60.6
			C1617.2,275,1612.6,271.6,1608.1,273z M1514.8,480.8c-27.7,0.2-46.1-18.5-46.2-46.8c-0.1-27.8,18.2-46.7,45.5-46.8
			c26.1-0.1,44,16.9,45.7,42.9l0,7.7C1558.1,463.5,1540.5,480.7,1514.8,480.8z"/>
		<path class="st0" d="M1320,353.8c0-6.6,4.3-12.4,10.6-14.4l37.1-11.2c4.5-1.4,9,2,9,6.7l-0.2,194.8h-56.5L1320,353.8z"/>
		<path class="st0" d="M1177.3,530h57.1c0-2.4,0-4.6,0-6.7c0-27-0.2-54,0.1-80.9c0.3-22.7,12.6-37.5,34.7-42.1
			c7.2-1.5,14.8-1.4,22.7-2v-64.2c-25.7,1-45.7,10.8-57.9,34.5l0.1-33.8c0-4.7-4.5-8.1-9-6.7l-37.1,11.2
			c-6.3,1.9-10.6,7.7-10.6,14.4L1177.3,530z"/>
		<path class="st0" d="M1140.5,381.5c-20.6-37.8-59.5-55.8-100.5-46.6c-13.5,3-25,9.7-36,21.1l-0.1-76c0-4.7-4.5-8.1-9-6.7
			l-37.1,11.2c-6.3,1.9-10.6,7.7-10.6,14.4l0,231.1h57.2c0-5.5,0-10.7,0-16.1c1.2,0.3,1.8,0.3,2,0.6c24.2,26.7,76,28.4,108.2,2.9
			C1153.8,486.4,1165.4,427.2,1140.5,381.5z M1050.3,480.8c-27.4,0-46.3-19.4-46-47.2c0.3-27.7,18.8-46.4,46.1-46.4
			c27,0,45.7,19.2,45.6,46.8C1095.8,461.9,1077.3,480.8,1050.3,480.8z"/>
		<path class="st0" d="M913.4,530l0-195.7c0-4.7-4.5-8.1-9-6.7l-38.1,11.6c-6.3,1.9-10.6,7.7-10.6,14.4l0,0.8
			c-34.1-32.9-90.9-27.6-122.2,7.8c-32.4,36.7-35.5,93-7.8,133.7C759,545,825.3,546,854.4,514.4c0.1-0.2,0.8,0.2,1.9,0.5
			c0,4.8,0,9.8,0,15.1H913.4z M810.3,480.8c-27.5-0.1-46-19.3-45.6-47.4c0.4-28,18.7-46.3,46-46.2c27.1,0.1,45.4,19.1,45.2,47
			C855.8,462.3,837.5,480.9,810.3,480.8z"/>
		<path class="st0" d="M688.8,387.8v-45.2c0-2.8-2.2-5-5-5h-34.1l0,0V293c0-4.7-4.5-8.1-9-6.7L602.3,298
			c-6.3,1.9-10.6,7.7-10.6,14.4v25.4h-25.1c-2.8,0-5,2.2-5,5v45.7c0,2.8,2.2,5,5,5h25.1c0,8.8-0.1,16.7,0,24.7
			c0.4,20.9-0.1,41.8,1.6,62.6c2,25.8,15.6,41.6,39.1,47.5c17.1,4.3,34.5,4.4,52,2.3c2.5-0.3,4.4-2.4,4.4-5v-42.7c0-2.8-2.3-5-5.1-5
			c-5.9,0.1-11.5,0.3-17.1-0.2c-12-0.9-16.8-6.2-16.9-18.2c-0.1-20.4,0-66.7,0-66.7h34.1C686.6,392.8,688.8,390.5,688.8,387.8z"/>
		<path class="st0" d="M530.9,428.4c-11.4-8.3-26.1-12.2-39.5-17.5c-8.7-3.5-18.2-5.2-26.8-8.9c-3-1.3-6.8-6.4-6.3-9
			c0.6-3.3,4.8-7.3,8.3-8.4c11.3-3.6,21,0.1,28.6,9c0.8,1,1.6,1.9,2.4,3c1.5,1.9,4.2,2.5,6.3,1.3c12.5-6.8,35.2-19,42.4-22.9
			c1.3-0.7,1.8-2.4,1-3.6c0,0,0,0,0,0c-22.1-35.1-69.9-49-110.1-32.1c-24.2,10.2-37.8,28.1-38.7,54.7c-0.8,24.5,11.6,42.3,37.7,53
			c11.8,4.9,24.4,7.9,36.6,11.9c5.3,1.8,10.7,3.5,15.4,6.3c6.8,4,6.4,12-0.6,15.7c-2.9,1.5-6.4,2.4-9.7,2.8
			c-16.2,1.6-28.9-3-36.3-17.4c-1.3-2.5-4.4-3.5-6.9-2c-12.1,6.9-34.1,19.4-42.1,24c-1.6,0.9-2.2,3-1.3,4.7l0,0.1
			c12.5,23.3,32.3,36.1,57.9,40.6c24.7,4.3,49,3.2,71.6-8.6C558.3,505.3,564.3,452.9,530.9,428.4z"/>
		<path class="st0" d="M370.9,411.6c0-6.2-0.5-12.3-1.6-18.4c-5-27.5-19.1-48.4-46.6-56.8c-26.6-8.1-51.8-5.6-72.9,13.4l-6.1,5.7
			v-22c0-4.7-4.5-8.1-9-6.7l-37.4,11.4c-6.3,1.9-10.6,7.7-10.6,14.4l0,177.2h57.3c0-3.1,0-5.7,0-8.3c0-30.6-0.1-61.2,0.1-91.8
			c0-5.8,0.4-11.7,1.5-17.4c2.1-10.8,7.7-19.4,18.3-23.7c19.8-7.9,47.2-1.4,49,27.8c0.2,3.4,0.5,6.8,0.5,10.2c0,31.8,0,63.6,0,95.5
			c0,2.6,0.2,5.1,0.3,7.9h56.8c0.1-2.2,0.3-3.8,0.3-5.4C370.9,486.9,371,449.3,370.9,411.6z"/>
		<path class="st0" d="M154.2,266.7c0-4.7-4.5-8.1-9-6.7l-40.7,12.4c-6.3,1.9-10.6,7.7-10.6,14.4V530h60.3V266.7z"/>
	</g>
	<g>
		<path class="st0" d="M1533.4,247.7L1533.4,247.7c16.6-5.1,25.1-23.7,17.8-39.5C1502.6,103,1394.4,74,1281,104.4
			c-7,1.9-11.1,9.2-9,16.1l0,0c1.9,6.6,8.7,10.5,15.3,9c86.2-20.4,174.5,23.2,211.4,102.6C1504.7,245.3,1519.6,252,1533.4,247.7z"/>
		<path class="st0" d="M1304.5,184L1304.5,184c0.4,6.7,5.9,11.9,12.6,12.1c40.2,1.5,75.1,27.9,87.8,65.4c4.4,12.9,17,21,30.5,19.8h0
			c18.8-1.7,31.3-20.5,25.3-38.4c-21-62.6-76.9-76.4-144-72.6C1309.4,170.7,1304,176.9,1304.5,184z"/>
		<path class="st0" d="M1375.3,269.5c5.5,14.2-1.5,30.2-15.7,35.7c-14.2,5.5-30.2-1.5-35.7-15.7c-3.9-10.1-6.3-28.9-2.2-40.9
			c1.7-4.9,4.4-8.6,8.5-10.2c4.4-1.7,9.9-0.7,15.5,1.8C1358.3,246,1371.5,259.7,1375.3,269.5z"/>
	</g>
</g>
</svg>
